<svg width="102" height="83" viewBox="0 0 102 83" fill="none" xmlns="http://www.w3.org/2000/svg">
<path fill-rule="evenodd" clip-rule="evenodd" d="M76.0549 41.2956L49.5732 21.8561V3.50078L101.059 41.2948L49.5732 79.0889V60.735L76.0549 41.2956ZM19.7992 61.0831V82.5911L49.5732 60.735V21.8561L19.7992 0V22.5497C19.6247 22.545 19.4495 22.5426 19.2738 22.5426C8.62915 22.5426 0 31.1718 0 41.8164C0 52.461 8.62915 61.0901 19.2738 61.0901C19.4495 61.0901 19.6247 61.0878 19.7992 61.0831ZM19.7992 61.0831V22.5497C30.2009 22.8281 38.5475 31.3475 38.5475 41.8164C38.5475 52.2853 30.2009 60.8047 19.7992 61.0831Z" fill="#3FE6D0"/>
</svg>
